<?xml version="1.0" encoding="UTF-8" standalone="no"?>
<!-- Created with Inkscape (http://www.inkscape.org/) -->

<svg
   width="600"
   height="450"
   viewBox="0 0 600 450"
   version="1.1"
   id="SVGRoot"
   sodipodi:docname="api-icon.svg"
   inkscape:version="1.2.2 (732a01da63, 2022-12-09)"
   xmlns:inkscape="http://www.inkscape.org/namespaces/inkscape"
   xmlns:sodipodi="http://sodipodi.sourceforge.net/DTD/sodipodi-0.dtd"
   xmlns="http://www.w3.org/2000/svg"
   xmlns:svg="http://www.w3.org/2000/svg">
  <sodipodi:namedview
     id="namedview442"
     pagecolor="#ffffff"
     bordercolor="#666666"
     borderopacity="1.0"
     inkscape:showpageshadow="2"
     inkscape:pageopacity="0.0"
     inkscape:pagecheckerboard="0"
     inkscape:deskcolor="#d1d1d1"
     inkscape:document-units="px"
     showgrid="true"
     inkscape:zoom="1.2623761"
     inkscape:cx="181.80002"
     inkscape:cy="255.07454"
     inkscape:window-width="2560"
     inkscape:window-height="1369"
     inkscape:window-x="1912"
     inkscape:window-y="-8"
     inkscape:window-maximized="1"
     inkscape:current-layer="layer1">
    <inkscape:grid
       type="xygrid"
       id="grid565"
       originx="0"
       originy="0" />
  </sodipodi:namedview>
  <defs
     id="defs437" />
  <g
     inkscape:label="Layer 1"
     inkscape:groupmode="layer"
     id="layer1">
    <path
       style="opacity:1;fill:#b9b9b9;fill-opacity:1;stroke-width:0.483442;stroke-dasharray:none"
       d="m 148.7247,336.54986 -1.26571,-1.26573 -0.002,-79.60884 c -0.002,-57.34325 0.14852,-79.93911 0.53605,-80.78965 0.2959,-0.64944 1.10906,-1.41656 1.807,-1.70471 0.89314,-0.36876 19.81663,-0.48603 63.89189,-0.39596 l 62.62291,0.12797 0.92447,1.21074 c 0.90109,1.18012 0.92465,3.23569 0.9315,81.27197 l 0.007,80.06126 -1.17933,1.17933 -1.17933,1.17932 h -62.91432 -62.91439 l -1.26571,-1.2657 z m 113.97449,-20.76974 v -10.41236 h -51.09318 -51.09317 v 10.41236 10.41235 h 51.09317 51.09318 z m -14.8252,4.61047 c -4.3941,-1.77542 -3.81188,-8.94657 0.80126,-9.8692 3.01905,-0.60381 6.27521,1.99926 6.27521,5.01658 0,1.78551 -1.46096,3.92716 -3.16453,4.63896 -1.85209,0.77386 -2.44526,0.80625 -3.91194,0.21366 z m 14.8252,-46.25989 v -10.41235 h -51.09318 -51.09317 v 10.41235 10.41235 h 51.09317 51.09318 z m -14.8252,4.61046 c -4.3941,-1.77541 -3.81188,-8.94656 0.80126,-9.8692 3.01905,-0.6038 6.27521,1.99928 6.27521,5.0166 0,1.78549 -1.46096,3.92716 -3.16453,4.63896 -1.85209,0.77385 -2.44526,0.80625 -3.91194,0.21364 z m 14.71357,-44.3275 -0.13052,-10.41716 h -50.85103 -50.85103 l -0.13052,10.41716 -0.13051,10.41716 h 51.11206 51.11207 z m -14.71833,3.41368 c -2.79733,-1.19574 -3.88145,-4.28763 -2.53758,-7.23711 0.5562,-1.22071 3.0344,-2.70975 4.50988,-2.70975 2.35877,0 5.10893,2.86767 5.10893,5.32725 0,3.53611 -3.80653,6.01939 -7.08123,4.61961 z m 14.82996,-44.0897 V 183.3253 H 211.60601 160.51284 V 193.73764 204.15 h 51.09317 51.09318 z m -14.39126,4.75427 c -1.77588,-0.35827 -3.52768,-2.86633 -3.52768,-5.05062 0,-3.9016 3.32563,-6.12237 6.91956,-4.62074 5.7801,2.41509 2.79731,10.91998 -3.39188,9.67136 z m 42.7637,88.1094 c 0.21282,-0.46613 0.47334,-3.1903 0.57897,-6.05369 l 0.19201,-5.20618 h 53.16623 c 45.34563,0 53.78583,-0.10803 57.3785,-0.73455 32.61065,-5.68682 48.56759,-42.85251 30.1464,-70.21474 -6.07982,-9.0308 -15.78724,-15.87443 -26.48332,-18.67051 -6.52315,-1.70522 -16.4393,-1.79264 -21.8227,-0.19239 -0.51468,0.15298 -1.55995,-0.92657 -3.27363,-3.381 -9.77605,-14.0018 -24.34543,-20.94646 -41.80192,-19.92541 l -5.63573,0.32964 -1.05199,-3.53709 c -0.57859,-1.9454 -1.17363,-3.97296 -1.32231,-4.50568 -0.14869,-0.53273 -1.10407,-2.66677 -2.12306,-4.74231 -5.72336,-11.65762 -15.83181,-20.1134 -28.59412,-23.91912 -4.15765,-1.23981 -5.22209,-1.35751 -12.30026,-1.3601 -8.56484,-0.003 -11.82382,0.66515 -18.94656,3.88505 -12.43657,5.62206 -22.05162,17.43435 -25.19728,30.95539 l -0.83838,3.60359 -6.00335,0.14741 c -3.30185,0.0811 -6.0656,0.0844 -6.14165,0.008 -0.34899,-0.35342 1.39819,-8.04285 2.71922,-11.96736 5.18614,-15.40691 17.6688,-28.64065 32.77845,-34.75071 6.68756,-2.70432 11.78207,-3.76024 19.69238,-4.08156 5.72833,-0.23269 7.62746,-0.11303 12.24223,0.77138 14.82351,2.84088 26.91658,10.36254 36.2768,22.56343 1.85501,2.41797 5.57211,9.11113 6.69977,12.06386 l 0.84891,2.22286 2.96106,4.9e-4 c 3.29332,6.4e-4 9.29002,0.95825 13.6574,2.18075 10.02913,2.80731 19.20778,8.4209 26.32896,16.10259 l 3.87252,4.17732 4.73445,-0.12382 c 31.7313,-0.82962 58.7334,25.63821 58.7334,57.57145 0,10.67709 -3.59448,22.40736 -9.68499,31.60608 -9.23391,13.94629 -23.97057,23.26077 -40.35357,25.50593 -2.5073,0.34361 -22.05391,0.51916 -57.80405,0.51916 -51.26808,0 -53.99604,-0.043 -53.62879,-0.84751 z"
       id="path1874" />
  </g>
</svg>
